<svg width="83" height="91" viewBox="0 0 83 91" fill="none" xmlns="http://www.w3.org/2000/svg">
<g filter="url(#filter0_bd_3_208)">
<path d="M37.5368 1.23715C39.9805 -0.144911 42.9698 -0.144912 45.4134 1.23714L74.7176 17.8106C77.2275 19.2302 78.7793 21.8906 78.7793 24.7741L78.7793 57.6376C78.7793 60.5211 77.2275 63.1815 74.7176 64.6011L45.4134 81.1745C42.9698 82.5566 39.9805 82.5566 37.5368 81.1745L8.23263 64.6011C5.72272 63.1815 4.17094 60.5211 4.17094 57.6376L4.17094 24.7741C4.17094 21.8906 5.72272 19.2302 8.23263 17.8106L37.5368 1.23715Z" fill="url(#paint0_linear_3_208)" fill-opacity="0.8" shape-rendering="crispEdges"/>
<path d="M38.0291 2.10758C40.1673 0.898278 42.7829 0.898277 44.9211 2.10758L74.2253 18.6811C76.4215 19.9232 77.7793 22.251 77.7793 24.7741L77.7793 57.6376C77.7793 60.1607 76.4215 62.4885 74.2253 63.7306L44.9211 80.3041C42.7829 81.5134 40.1673 81.5134 38.0291 80.3041L8.72492 63.7306C6.52875 62.4885 5.17094 60.1607 5.17094 57.6376L5.17094 24.7741C5.17094 22.251 6.52875 19.9232 8.72492 18.6811L38.0291 2.10758Z" stroke="url(#paint1_linear_3_208)" stroke-opacity="0.5" stroke-width="2" shape-rendering="crispEdges"/>
</g>
<defs>
<filter id="filter0_bd_3_208" x="-7.82904" y="-11.7998" width="98.6083" height="106.011" filterUnits="userSpaceOnUse" color-interpolation-filters="sRGB">
<feFlood flood-opacity="0" result="BackgroundImageFix"/>
<feGaussianBlur in="BackgroundImageFix" stdDeviation="6"/>
<feComposite in2="SourceAlpha" operator="in" result="effect1_backgroundBlur_3_208"/>
<feColorMatrix in="SourceAlpha" type="matrix" values="0 0 0 0 0 0 0 0 0 0 0 0 0 0 0 0 0 0 127 0" result="hardAlpha"/>
<feOffset dy="4"/>
<feGaussianBlur stdDeviation="2"/>
<feComposite in2="hardAlpha" operator="out"/>
<feColorMatrix type="matrix" values="0 0 0 0 0 0 0 0 0 0 0 0 0 0 0 0 0 0 0.1 0"/>
<feBlend mode="normal" in2="effect1_backgroundBlur_3_208" result="effect2_dropShadow_3_208"/>
<feBlend mode="normal" in="SourceGraphic" in2="effect2_dropShadow_3_208" result="shape"/>
</filter>
<linearGradient id="paint0_linear_3_208" x1="66.7855" y1="70.1902" x2="21.2298" y2="9.85803" gradientUnits="userSpaceOnUse">
<stop stop-color="#00B7EC"/>
<stop offset="1" stop-color="#00B7EC" stop-opacity="0.33"/>
</linearGradient>
<linearGradient id="paint1_linear_3_208" x1="10.5896" y1="7.87387" x2="57.0393" y2="84.2603" gradientUnits="userSpaceOnUse">
<stop stop-color="white"/>
<stop offset="1" stop-opacity="0"/>
</linearGradient>
</defs>
</svg>
